<svg version="1.1" id="Capa_1" xmlns="http://www.w3.org/2000/svg" xmlns:xlink="http://www.w3.org/1999/xlink" x="0px" y="0px" viewBox="0 0 1200 1200" enable-background="new 0 0 1200 1200" xml:space="preserve">
<path fill="#65676B" d="M1136.506,346.312c-4.562-16.961-10.069-33.685-16.43-50.088c-9.759-25.171-21.53-49.583-34.981-72.926&#10;&#9;c-22.233-38.582-46.455-79.988-84.074-105.345C968.136,95.791,928.862,83.54,889.178,83.54c-0.029,0-585.446,0-585.446,0&#10;&#9;c-75.89,0-146.448,44.082-179.76,112.28c-25.092,51.382-51.827,98.159-63.779,155.104c-16.595,79.067-18.676,176.513,38.553,240.238&#10;&#9;c7.027,7.822,17.352,19.235,33.025,28.168v373.936c0,67.912,55.245,123.193,123.155,123.193h682.914&#10;&#9;c67.912,0,123.157-55.281,123.157-123.193V620.593c19.851-9.982,31.942-23.316,37.41-29.398&#10;&#9;C1158.449,524.458,1158.618,428.533,1136.506,346.312z M140.467,328.997l49.341-101.045c21.11-43.188,65.836-71.132,113.924-71.132&#10;&#9;h585.446c48.161,0,92.924,27.98,113.997,71.239l49.2,100.974c5.653,11.628,0.966,21.361-1.324,25.046&#10;&#9;c-2.29,3.649-8.98,12.13-21.862,12.165l-432.59,1.037l-432.948-1.037c-12.916-0.036-19.606-8.552-21.896-12.201&#10;&#9;C139.501,350.393,134.811,340.626,140.467,328.997z M478.877,1032.125V776.686c0-11.128,9.053-20.18,20.183-20.18h194.647&#10;&#9;c11.163,0,20.214,9.052,20.214,20.18v255.439c0,4.086-1.233,7.876-3.316,11.056H482.196&#10;&#9;C480.113,1040,478.877,1036.211,478.877,1032.125z M937.839,1043.181H767.976c0.538-3.619,0.906-7.292,0.906-11.056V776.686&#10;&#9;c0-41.434-33.741-75.14-75.174-75.14H499.06c-41.434,0-75.141,33.706-75.141,75.14v255.439c0,3.765,0.368,7.438,0.906,11.056h-169.9&#10;&#9;c-27.513,0-49.876-22.399-49.876-49.914V670.542l-0.157-38.958c41.363-6.161,64.016-31.373,72.104-40.421&#10;&#9;c6.199-6.906,8.247-8.087,8.56-8.23c0,0,9.766,0,9.839,0c0.321,0.179,2.361,1.324,8.57,8.265&#10;&#9;c13.114,14.599,37.498,41.756,87.304,41.756c53.404,0,81.716-31.451,91.054-41.828c6.163-6.87,8.21-8.015,8.523-8.194l9.769-0.036&#10;&#9;c0.358,0.179,2.397,1.396,8.641,8.373c13.151,14.563,37.606,41.685,87.197,41.685c53.404,0,81.716-31.451,91.054-41.828&#10;&#9;c6.173-6.87,8.213-8.015,8.534-8.194c0,0,9.758,0,9.832,0c0.321,0.143,2.361,1.36,8.641,8.337&#10;&#9;c13.148,14.563,37.606,41.685,87.268,41.685c47.839,0,74.838-23.794,91.054-41.792c6.199-6.906,8.249-8.051,8.57-8.23&#10;&#9;c0,0.036,9.973,0.036,9.936,0c0.35,0.179,2.363,1.324,8.607,8.265c11.184,12.459,30.654,34.01,67.108,40.076l0.661,361.993&#10;&#9;C987.718,1020.782,965.355,1043.181,937.839,1043.181z M1070.667,476.091c0,24.044-9.087,47.374-25.557,65.693&#10;&#9;c-9.939,11.056-19.697,17.89-37.783,17.89c-17.237,0-23.196-5.796-34.046-17.854c-18.052-20.109-35.566-32.56-66.946-32.56&#10;&#9;c-31.37,0-48.85,12.451-66.792,32.489c-10.262,11.342-19.708,17.926-37.76,17.926c-17.156,0-22.836-5.475-33.973-17.819&#10;&#9;c-18.015-20.144-35.493-32.596-66.839-32.596c-31.37,0-48.813,12.451-66.792,32.489c-10.226,11.342-19.671,17.926-37.723,17.926&#10;&#9;c-17.083,0-22.765-5.475-33.866-17.783c-18.016-20.144-35.459-32.632-66.803-32.632c-31.37,0-48.824,12.451-66.795,32.489&#10;&#9;c-10.223,11.342-19.668,17.926-37.72,17.926c-17.164,0-23.113-5.796-33.939-17.819c-18.013-20.144-35.493-32.596-66.873-32.596&#10;&#9;c-31.263,0-48.751,12.451-66.795,32.525c-9.902,11.056-19.668,17.89-37.65,17.89c-17.13,0-22.802-5.51-33.937-17.926&#10;&#9;c-18.337-20.395-28.411-46.372-28.411-73.208v-27.98h947.001V476.091z" style="fill: rgb(255, 193, 7);"/>
</svg>